<?xml version="1.0" encoding="UTF-8"?>
<svg id="Layer_1" data-name="Layer 1" xmlns="http://www.w3.org/2000/svg" viewBox="0 0 1920 1080">
  <defs>
    <style>
      .cls-1 {
        fill: #fff;
      }

      .cls-2 {
        fill: #ff7bac;
      }

      .cls-3 {
        fill: #ff9eac;
      }
    </style>
  </defs>
  <path class="cls-2" d="m1343,526.5c0,193.28-142.99,353.17-328.96,379.64-17.81,2.55-36.02,3.86-54.54,3.86-29.88,0-58.95-3.42-86.86-9.89-19.86-4.58-39.14-10.73-57.67-18.29l-189.04,99.4,36.41-212.3c-10.8-13.21-20.74-27.15-29.72-41.75-25.62-41.66-43.52-88.59-51.64-138.8-3.28-20.14-4.98-40.81-4.98-61.86,0-211.8,171.7-383.5,383.5-383.5s383.5,171.7,383.5,383.5Z"/>
  <path class="cls-1" d="m1146.38,458.3c0,24.5-9.36,49-28.04,67.69l-157.89,157.89s-.09.03-.12,0l-156.63-156.63c-37.5-37.5-38.53-99.9-.76-137.13,18.62-18.36,42.92-27.55,67.19-27.55s49,9.36,67.69,28.04l22.51,22.51s.09.03.12,0l21.25-21.25c37.5-37.5,99.9-38.53,137.13-.76,18.36,18.62,27.55,42.92,27.55,67.2Z"/>
  <circle class="cls-3" cx="878.02" cy="497.26" r="25.68"/>
  <circle class="cls-3" cx="961.27" cy="497.26" r="25.68"/>
  <circle class="cls-3" cx="1044.53" cy="497.26" r="25.68"/>
</svg>